<svg width="39" height="37" viewBox="0 0 39 37" fill="none" xmlns="http://www.w3.org/2000/svg">
<path d="M34.7839 4.631L34.7848 4.63205C39.0574 9.61253 39.0688 17.4083 34.8365 22.3752L19.5005 35.6763L4.16443 22.3752C-0.0680969 17.4079 -0.0560852 9.61219 4.20839 4.64113L4.20972 4.63957C5.20392 3.47583 6.37842 2.56126 7.66089 1.94009C8.94249 1.31933 10.3105 1.00176 11.6877 1C14.2824 1.00028 16.8133 2.13055 18.7707 4.21981L19.5004 4.99859L20.2301 4.2199C22.1879 2.13091 24.7187 1.00064 27.3136 1C28.6891 1.00131 30.0554 1.31789 31.3357 1.93717C32.6168 2.55686 33.7902 3.46949 34.7839 4.631Z" stroke="#BE9421" stroke-width="2"/>
</svg>
